<?xml version="1.0" encoding="utf-8"?>
<!-- Generator: Adobe Illustrator 25.2.1, SVG Export Plug-In . SVG Version: 6.00 Build 0)  -->
<svg version="1.1" id="Layer_1" xmlns="http://www.w3.org/2000/svg" xmlns:xlink="http://www.w3.org/1999/xlink" x="0px" y="0px"
	 viewBox="0 0 21.5 15.2" style="enable-background:new 0 0 21.5 15.2;" xml:space="preserve">
<style type="text/css">
	.st0{fill:#202020;}
</style>
<path class="st0" d="M21.1,6.5c-0.3-0.3-0.7-0.6-1.2-0.6c-0.1,0-0.2,0-0.2,0H5.8l3.1-3.1C9.2,2.5,9.3,2,9.3,1.6
	c0-0.5-0.3-0.9-0.6-1.2C8-0.1,7.1-0.1,6.4,0.4L0.5,6.4c-0.7,0.7-0.7,1.8,0,2.4l6,6c0.3,0.3,0.7,0.4,1.1,0.4c0.5,0,1-0.2,1.3-0.6
	c0.5-0.6,0.5-1.6,0-2.3l-3-3l13.8,0c0.5,0,0.9-0.1,1.2-0.4s0.6-0.7,0.6-1.2S21.4,6.8,21.1,6.5z"/>
</svg>
