<?xml version="1.0" encoding="utf-8"?>
<!-- Generator: Adobe Illustrator 25.2.1, SVG Export Plug-In . SVG Version: 6.00 Build 0)  -->
<svg version="1.1" id="Layer_1" xmlns="http://www.w3.org/2000/svg" xmlns:xlink="http://www.w3.org/1999/xlink" x="0px" y="0px"
	 viewBox="0 0 21.5 15.2" style="enable-background:new 0 0 21.5 15.2;" xml:space="preserve">
<style type="text/css">
	.st0{fill:#202020;}
</style>
<path class="st0" d="M21,6.4l-6-6c-0.7-0.6-1.8-0.5-2.4,0.2c-0.5,0.6-0.5,1.6,0,2.3l3,3l-13.8,0C1.4,5.8,1,6,0.6,6.3
	C0.3,6.6,0,7,0,7.4s0.1,0.9,0.4,1.2s0.7,0.6,1.2,0.6c0.1,0,0.2,0,0.2,0h13.8l-3.1,3.1c-0.6,0.7-0.5,1.8,0.2,2.4
	c0.3,0.3,0.7,0.4,1.1,0.4c0.4,0,0.8-0.1,1.2-0.4L21,8.8C21.7,8.1,21.7,7,21,6.4z"/>
</svg>
