<?xml version="1.0" encoding="utf-8"?>
<svg xmlns="http://www.w3.org/2000/svg" width="200" height="200" viewBox="0 0 200 200">
    <defs>
        <radialGradient id="a" cx="49.975%" cy="49.477%" r="71.211%" fx="49.975%" fy="49.477%" gradientTransform="matrix(1 0 0 .9995 0 0)">
            <stop offset="0%" stop-color="#000EE6"/>
            <stop offset="11.92%" stop-color="#3944EC"/>
            <stop offset="24.36%" stop-color="#6D75F1"/>
            <stop offset="37.03%" stop-color="#9A9FF5"/>
            <stop offset="49.66%" stop-color="#BEC2F9"/>
            <stop offset="62.26%" stop-color="#DBDDFB"/>
            <stop offset="74.82%" stop-color="#EFF0FD"/>
            <stop offset="87.32%" stop-color="#FBFBFF"/>
            <stop offset="99.74%" stop-color="#FFF"/>
        </radialGradient>
        <radialGradient id="b" cx="50.189%" cy="49.966%" r="57.76%" fx="50.189%" fy="49.966%" gradientTransform="scale(1 .77993) rotate(30.001 .239 .57)">
            <stop offset=".159%" stop-color="#C1DAEF"/>
            <stop offset="10.49%" stop-color="#CAE0F2" stop-opacity=".896"/>
            <stop offset="40.3%" stop-color="#DEEFF9" stop-opacity=".597"/>
            <stop offset="70.11%" stop-color="#EAF7FE" stop-opacity=".297"/>
            <stop offset="99.74%" stop-color="#EEFAFF" stop-opacity="0"/>
        </radialGradient>
        <radialGradient id="c" cx="49.978%" cy="49.956%" r="57.76%" fx="49.978%" fy="49.956%" gradientTransform="scale(1 .77993) rotate(30.001 .237 .57)">
            <stop offset=".159%" stop-color="#C1DAEF"/>
            <stop offset="10.49%" stop-color="#CAE0F2" stop-opacity=".896"/>
            <stop offset="40.3%" stop-color="#DEEFF9" stop-opacity=".597"/>
            <stop offset="70.11%" stop-color="#EAF7FE" stop-opacity=".297"/>
            <stop offset="99.74%" stop-color="#EEFAFF" stop-opacity="0"/>
        </radialGradient>
        <radialGradient id="d" cx="49.827%" cy="50.019%" r="57.895%" fx="49.827%" fy="50.019%" gradientTransform="scale(1 .77273) rotate(30.231 .226 .574)">
            <stop offset=".159%" stop-color="#C1DAEF"/>
            <stop offset="10.49%" stop-color="#CAE0F2" stop-opacity=".896"/>
            <stop offset="40.3%" stop-color="#DEEFF9" stop-opacity=".597"/>
            <stop offset="70.11%" stop-color="#EAF7FE" stop-opacity=".297"/>
            <stop offset="99.74%" stop-color="#EEFAFF" stop-opacity="0"/>
        </radialGradient>
        <radialGradient id="e" cx="50.189%" cy="50.057%" r="57.76%" fx="50.189%" fy="50.057%" gradientTransform="scale(1 .7787) rotate(30.001 .236 .572)">
            <stop offset=".159%" stop-color="#C1DAEF"/>
            <stop offset="10.49%" stop-color="#CAE0F2" stop-opacity=".896"/>
            <stop offset="40.3%" stop-color="#DEEFF9" stop-opacity=".597"/>
            <stop offset="70.11%" stop-color="#EAF7FE" stop-opacity=".297"/>
            <stop offset="99.74%" stop-color="#EEFAFF" stop-opacity="0"/>
        </radialGradient>
        <radialGradient id="f" cx="49.866%" cy="49.577%" r="71.292%" fx="49.866%" fy="49.577%" gradientTransform="matrix(.49873 .50001 -.28795 .86602 .393 -.183)">
            <stop offset=".159%" stop-color="#C1DAEF"/>
            <stop offset="10.49%" stop-color="#CAE0F2" stop-opacity=".896"/>
            <stop offset="40.3%" stop-color="#DEEFF9" stop-opacity=".597"/>
            <stop offset="70.11%" stop-color="#EAF7FE" stop-opacity=".297"/>
            <stop offset="99.74%" stop-color="#EEFAFF" stop-opacity="0"/>
        </radialGradient>
        <radialGradient id="g" cx="49.822%" cy="49.743%" r="71.292%" fx="49.822%" fy="49.743%" gradientTransform="scale(.57518 1) rotate(30.001 .682 1.184)">
            <stop offset=".159%" stop-color="#C1DAEF"/>
            <stop offset="10.49%" stop-color="#CAE0F2" stop-opacity=".896"/>
            <stop offset="40.3%" stop-color="#DEEFF9" stop-opacity=".597"/>
            <stop offset="70.11%" stop-color="#EAF7FE" stop-opacity=".297"/>
            <stop offset="99.74%" stop-color="#EEFAFF" stop-opacity="0"/>
        </radialGradient>
        <radialGradient id="h" cx="49.999%" cy="49.978%" r="57.76%" fx="49.999%" fy="49.978%" gradientTransform="scale(1 .77892) rotate(-30.001 .765 .57)">
            <stop offset=".159%" stop-color="#C1DAEF"/>
            <stop offset="10.49%" stop-color="#CAE0F2" stop-opacity=".896"/>
            <stop offset="40.3%" stop-color="#DEEFF9" stop-opacity=".597"/>
            <stop offset="70.11%" stop-color="#EAF7FE" stop-opacity=".297"/>
            <stop offset="99.74%" stop-color="#EEFAFF" stop-opacity="0"/>
        </radialGradient>
        <radialGradient id="i" cx="49.747%" cy="50.09%" r="57.76%" fx="49.747%" fy="50.09%" gradientTransform="scale(1 .77892) rotate(-30.001 .763 .572)">
            <stop offset=".159%" stop-color="#C1DAEF"/>
            <stop offset="10.49%" stop-color="#CAE0F2" stop-opacity=".896"/>
            <stop offset="40.3%" stop-color="#DEEFF9" stop-opacity=".597"/>
            <stop offset="70.11%" stop-color="#EAF7FE" stop-opacity=".297"/>
            <stop offset="99.74%" stop-color="#EEFAFF" stop-opacity="0"/>
        </radialGradient>
        <radialGradient id="j" cx="50.087%" cy="50.042%" r="57.76%" fx="50.087%" fy="50.042%" gradientTransform="scale(1 .77892) rotate(-30.001 .766 .571)">
            <stop offset=".159%" stop-color="#C1DAEF"/>
            <stop offset="10.49%" stop-color="#CAE0F2" stop-opacity=".896"/>
            <stop offset="40.3%" stop-color="#DEEFF9" stop-opacity=".597"/>
            <stop offset="70.11%" stop-color="#EAF7FE" stop-opacity=".297"/>
            <stop offset="99.74%" stop-color="#EEFAFF" stop-opacity="0"/>
        </radialGradient>
        <radialGradient id="k" cx="49.748%" cy="50.069%" r="58.3%" fx="49.748%" fy="50.069%" gradientTransform="scale(1 .75) rotate(-30.908 .8 .584)">
            <stop offset=".159%" stop-color="#C1DAEF"/>
            <stop offset="10.49%" stop-color="#CAE0F2" stop-opacity=".896"/>
            <stop offset="40.3%" stop-color="#DEEFF9" stop-opacity=".597"/>
            <stop offset="70.11%" stop-color="#EAF7FE" stop-opacity=".297"/>
            <stop offset="99.74%" stop-color="#EEFAFF" stop-opacity="0"/>
        </radialGradient>
        <radialGradient id="l" cx="49.927%" cy="49.855%" r="71.292%" fx="49.927%" fy="49.855%" gradientTransform="scale(.57518 1) rotate(30.001 .684 1.187)">
            <stop offset=".159%" stop-color="#C1DAEF"/>
            <stop offset="10.49%" stop-color="#CAE0F2" stop-opacity=".896"/>
            <stop offset="40.3%" stop-color="#DEEFF9" stop-opacity=".597"/>
            <stop offset="70.11%" stop-color="#EAF7FE" stop-opacity=".297"/>
            <stop offset="99.74%" stop-color="#EEFAFF" stop-opacity="0"/>
        </radialGradient>
        <radialGradient id="m" cx="50.097%" cy="49.75%" r="71.292%" fx="50.097%" fy="49.75%" gradientTransform="scale(.57517 1) rotate(30.001 .686 1.188)">
            <stop offset=".159%" stop-color="#C1DAEF"/>
            <stop offset="10.49%" stop-color="#CAE0F2" stop-opacity=".896"/>
            <stop offset="40.3%" stop-color="#DEEFF9" stop-opacity=".597"/>
            <stop offset="70.11%" stop-color="#EAF7FE" stop-opacity=".297"/>
            <stop offset="99.74%" stop-color="#EEFAFF" stop-opacity="0"/>
        </radialGradient>
    </defs>
    <g fill="none" fill-rule="evenodd">
        <path fill="url(#a)" d="M2.3 119.6c0-.6-.5-1.1-1.1-1.1-.6 0-1.1.5-1.1 1.1 0 .6.5 1.1 1.1 1.1.5.1 1.1-.5 1.1-1.1zm0-20.4c0-.6-.5-1.1-1.1-1.1-.6 0-1.1.5-1.1 1.1 0 .6.5 1.1 1.1 1.1.5.1 1.1-.4 1.1-1.1zm0-18.8c0-.6-.5-1.1-1.1-1.1-.6 0-1.1.5-1.1 1.1 0 .6.5 1.1 1.1 1.1.5 0 1.1-.5 1.1-1.1zm21 78.5c0-.6-.5-1.1-1.1-1.1-.6 0-1.1.5-1.1 1.1 0 .6.5 1.1 1.1 1.1.6 0 1.1-.5 1.1-1.1zm0-18.9c0-.6-.5-1.1-1.1-1.1-.6 0-1.1.5-1.1 1.1 0 .6.5 1.1 1.1 1.1.6 0 1.1-.5 1.1-1.1zm-21 0c0-.6-.5-1.1-1.1-1.1-.6 0-1.1.5-1.1 1.1 0 .6.5 1.1 1.1 1.1.5 0 1.1-.5 1.1-1.1zm21-20.4c0-.6-.5-1.1-1.1-1.1-.6 0-1.1.5-1.1 1.1 0 .6.5 1.1 1.1 1.1.6.1 1.1-.5 1.1-1.1zm0-20.4c0-.6-.5-1.1-1.1-1.1-.6 0-1.1.5-1.1 1.1 0 .6.5 1.1 1.1 1.1.6.1 1.1-.4 1.1-1.1zm0-18.8c0-.6-.5-1.1-1.1-1.1-.6 0-1.1.5-1.1 1.1 0 .6.5 1.1 1.1 1.1.6 0 1.1-.5 1.1-1.1zm0-20.4c0-.6-.5-1.1-1.1-1.1-.6 0-1.1.5-1.1 1.1 0 .6.5 1.1 1.1 1.1.6 0 1.1-.5 1.1-1.1zm0-18.9c0-.6-.5-1.1-1.1-1.1-.6 0-1.1.5-1.1 1.1 0 .6.5 1.1 1.1 1.1.6.1 1.1-.4 1.1-1.1zm19.6 136.6c0-.6-.5-1.1-1.1-1.1-.6 0-1.1.5-1.1 1.1 0 .6.5 1.1 1.1 1.1.6.1 1.1-.4 1.1-1.1zm0-18.8c0-.6-.5-1.1-1.1-1.1-.6 0-1.1.5-1.1 1.1 0 .6.5 1.1 1.1 1.1.6 0 1.1-.5 1.1-1.1zm0-18.9c0-.6-.5-1.1-1.1-1.1-.6 0-1.1.5-1.1 1.1 0 .6.5 1.1 1.1 1.1.6 0 1.1-.5 1.1-1.1zm0-20.4c0-.6-.5-1.1-1.1-1.1-.6 0-1.1.5-1.1 1.1 0 .6.5 1.1 1.1 1.1.6.1 1.1-.5 1.1-1.1zm0-20.4c0-.6-.5-1.1-1.1-1.1-.6 0-1.1.5-1.1 1.1 0 .6.5 1.1 1.1 1.1.6.1 1.1-.4 1.1-1.1zm0-18.8c0-.6-.5-1.1-1.1-1.1-.6 0-1.1.5-1.1 1.1 0 .6.5 1.1 1.1 1.1.6 0 1.1-.5 1.1-1.1zm0-20.4c0-.6-.5-1.1-1.1-1.1-.6 0-1.1.5-1.1 1.1 0 .6.5 1.1 1.1 1.1.6 0 1.1-.5 1.1-1.1zm0-18.9c0-.6-.5-1.1-1.1-1.1-.6 0-1.1.5-1.1 1.1 0 .6.5 1.1 1.1 1.1.6.1 1.1-.4 1.1-1.1zm0-18.8c0-.6-.5-1.1-1.1-1.1-.6 0-1.1.5-1.1 1.1 0 .6.5 1.1 1.1 1.1.6 0 1.1-.5 1.1-1.1zm18.8 155.4c0-.6-.5-1.1-1.1-1.1-.6 0-1.1.5-1.1 1.1 0 .6.5 1.1 1.1 1.1.5.1 1.1-.4 1.1-1.1zm0-18.8c0-.6-.5-1.1-1.1-1.1-.6 0-1.1.5-1.1 1.1 0 .6.5 1.1 1.1 1.1.5 0 1.1-.5 1.1-1.1zm0-18.9c0-.6-.5-1.1-1.1-1.1-.6 0-1.1.5-1.1 1.1 0 .6.5 1.1 1.1 1.1.5 0 1.1-.5 1.1-1.1zm0-20.4c0-.6-.5-1.1-1.1-1.1-.6 0-1.1.5-1.1 1.1 0 .6.5 1.1 1.1 1.1.5.1 1.1-.5 1.1-1.1zm0-20.4c0-.6-.5-1.1-1.1-1.1-.6 0-1.1.5-1.1 1.1 0 .6.5 1.1 1.1 1.1.5.1 1.1-.4 1.1-1.1zm0-18.8c0-.6-.5-1.1-1.1-1.1-.6 0-1.1.5-1.1 1.1 0 .6.5 1.1 1.1 1.1.5 0 1.1-.5 1.1-1.1zm0-20.4c0-.6-.5-1.1-1.1-1.1-.6 0-1.1.5-1.1 1.1 0 .6.5 1.1 1.1 1.1.5 0 1.1-.5 1.1-1.1zm0-18.9c0-.6-.5-1.1-1.1-1.1-.6 0-1.1.5-1.1 1.1 0 .6.5 1.1 1.1 1.1.5.1 1.1-.4 1.1-1.1zm0-18.8c0-.6-.5-1.1-1.1-1.1-.6 0-1.1.5-1.1 1.1 0 .6.5 1.1 1.1 1.1.5 0 1.1-.5 1.1-1.1zM80.8 200c.6 0 1.1-.5 1.1-1.1 0-.6-.5-1.1-1.1-1.1-.6 0-1.1.5-1.1 1.1 0 .6.5 1.1 1.1 1.1zm1.2-22.3c0-.6-.5-1.1-1.1-1.1-.6 0-1.1.5-1.1 1.1 0 .6.5 1.1 1.1 1.1.5.1 1.1-.4 1.1-1.1zm0-18.8c0-.6-.5-1.1-1.1-1.1-.6 0-1.1.5-1.1 1.1 0 .6.5 1.1 1.1 1.1.5 0 1.1-.5 1.1-1.1zm0-18.9c0-.6-.5-1.1-1.1-1.1-.6 0-1.1.5-1.1 1.1 0 .6.5 1.1 1.1 1.1.5 0 1.1-.5 1.1-1.1zm0-20.4c0-.6-.5-1.1-1.1-1.1-.6 0-1.1.5-1.1 1.1 0 .6.5 1.1 1.1 1.1.5.1 1.1-.5 1.1-1.1zm0-20.4c0-.6-.5-1.1-1.1-1.1-.6 0-1.1.5-1.1 1.1 0 .6.5 1.1 1.1 1.1.5.1 1.1-.4 1.1-1.1zm0-18.8c0-.6-.5-1.1-1.1-1.1-.6 0-1.1.5-1.1 1.1 0 .6.5 1.1 1.1 1.1.5 0 1.1-.5 1.1-1.1zM82 60c0-.6-.5-1.1-1.1-1.1-.6 0-1.1.5-1.1 1.1 0 .6.5 1.1 1.1 1.1.5 0 1.1-.5 1.1-1.1zm0-18.9c0-.6-.5-1.1-1.1-1.1-.6 0-1.1.5-1.1 1.1 0 .6.5 1.1 1.1 1.1.5.1 1.1-.4 1.1-1.1zm0-18.8c0-.6-.5-1.1-1.1-1.1-.6 0-1.1.5-1.1 1.1 0 .6.5 1.1 1.1 1.1.5 0 1.1-.5 1.1-1.1zm0-21.2c0-.6-.6-1.1-1.2-1.1s-1.1.5-1.1 1.1c0 .6.5 1.1 1.1 1.1.6.1 1.2-.4 1.2-1.1zM100.4 200c.6 0 1.1-.5 1.1-1.1 0-.6-.5-1.1-1.1-1.1-.6 0-1.1.5-1.1 1.1-.1.6.5 1.1 1.1 1.1zm1.1-22.3c0-.6-.5-1.1-1.1-1.1-.6 0-1.1.5-1.1 1.1 0 .6.5 1.1 1.1 1.1.6.1 1.1-.4 1.1-1.1zm0-18.8c0-.6-.5-1.1-1.1-1.1-.6 0-1.1.5-1.1 1.1 0 .6.5 1.1 1.1 1.1.6 0 1.1-.5 1.1-1.1zm0-18.9c0-.6-.5-1.1-1.1-1.1-.6 0-1.1.5-1.1 1.1 0 .6.5 1.1 1.1 1.1.6 0 1.1-.5 1.1-1.1zm0-20.4c0-.6-.5-1.1-1.1-1.1-.6 0-1.1.5-1.1 1.1 0 .6.5 1.1 1.1 1.1.6.1 1.1-.5 1.1-1.1zm0-20.4c0-.6-.5-1.1-1.1-1.1-.6 0-1.1.5-1.1 1.1 0 .6.5 1.1 1.1 1.1.6.1 1.1-.4 1.1-1.1zm0-18.8c0-.6-.5-1.1-1.1-1.1-.6 0-1.1.5-1.1 1.1 0 .6.5 1.1 1.1 1.1.6 0 1.1-.5 1.1-1.1zm0-20.4c0-.6-.5-1.1-1.1-1.1-.6 0-1.1.5-1.1 1.1 0 .6.5 1.1 1.1 1.1.6 0 1.1-.5 1.1-1.1zm0-18.9c0-.6-.5-1.1-1.1-1.1-.6 0-1.1.5-1.1 1.1 0 .6.5 1.1 1.1 1.1.6.1 1.1-.4 1.1-1.1zm0-18.8c0-.6-.5-1.1-1.1-1.1-.6 0-1.1.5-1.1 1.1 0 .6.5 1.1 1.1 1.1.6 0 1.1-.5 1.1-1.1zm0-21.2c0-.6-.5-1.1-1.1-1.1-.6 0-1.1.5-1.1 1.1 0 .6.5 1.1 1.1 1.1.6.1 1.1-.4 1.1-1.1zM119.2 200c.6 0 1.1-.5 1.1-1.1 0-.6-.5-1.1-1.1-1.1-.6 0-1.1.5-1.1 1.1-.1.6.4 1.1 1.1 1.1zm1.1-22.3c0-.6-.5-1.1-1.1-1.1-.6 0-1.1.5-1.1 1.1 0 .6.5 1.1 1.1 1.1.6.1 1.1-.4 1.1-1.1zm0-18.8c0-.6-.5-1.1-1.1-1.1-.6 0-1.1.5-1.1 1.1 0 .6.5 1.1 1.1 1.1.6 0 1.1-.5 1.1-1.1zm0-18.9c0-.6-.5-1.1-1.1-1.1-.6 0-1.1.5-1.1 1.1 0 .6.5 1.1 1.1 1.1.6 0 1.1-.5 1.1-1.1zm0-20.4c0-.6-.5-1.1-1.1-1.1-.6 0-1.1.5-1.1 1.1 0 .6.5 1.1 1.1 1.1.6.1 1.1-.5 1.1-1.1zm0-20.4c0-.6-.5-1.1-1.1-1.1-.6 0-1.1.5-1.1 1.1 0 .6.5 1.1 1.1 1.1.6.1 1.1-.4 1.1-1.1zm0-18.8c0-.6-.5-1.1-1.1-1.1-.6 0-1.1.5-1.1 1.1 0 .6.5 1.1 1.1 1.1.6 0 1.1-.5 1.1-1.1zm0-20.4c0-.6-.5-1.1-1.1-1.1-.6 0-1.1.5-1.1 1.1 0 .6.5 1.1 1.1 1.1.6 0 1.1-.5 1.1-1.1zm0-18.9c0-.6-.5-1.1-1.1-1.1-.6 0-1.1.5-1.1 1.1 0 .6.5 1.1 1.1 1.1.6.1 1.1-.4 1.1-1.1zm0-18.8c0-.6-.5-1.1-1.1-1.1-.6 0-1.1.5-1.1 1.1 0 .6.5 1.1 1.1 1.1.6 0 1.1-.5 1.1-1.1zm0-21.2c0-.6-.5-1.1-1.1-1.1-.6 0-1.1.5-1.1 1.1 0 .6.5 1.1 1.1 1.1.6.1 1.1-.4 1.1-1.1zm20.3 176.6c0-.6-.5-1.1-1.1-1.1-.6 0-1.1.5-1.1 1.1 0 .6.5 1.1 1.1 1.1.6.1 1.1-.4 1.1-1.1zM60.5 200c.6 0 1.1-.5 1.1-1.1 0-.6-.5-1.1-1.1-1.1-.6 0-1.1.5-1.1 1.1 0 .6.5 1.1 1.1 1.1zm79 0c.6 0 1.1-.5 1.1-1.1 0-.6-.5-1.1-1.1-1.1-.6 0-1.1.5-1.1 1.1-.1.6.5 1.1 1.1 1.1zm1.1-41.1c0-.6-.5-1.1-1.1-1.1-.6 0-1.1.5-1.1 1.1 0 .6.5 1.1 1.1 1.1.6 0 1.1-.5 1.1-1.1zm0-18.9c0-.6-.5-1.1-1.1-1.1-.6 0-1.1.5-1.1 1.1 0 .6.5 1.1 1.1 1.1.6 0 1.1-.5 1.1-1.1zm0-20.4c0-.6-.5-1.1-1.1-1.1-.6 0-1.1.5-1.1 1.1 0 .6.5 1.1 1.1 1.1.6.1 1.1-.5 1.1-1.1zm0-20.4c0-.6-.5-1.1-1.1-1.1-.6 0-1.1.5-1.1 1.1 0 .6.5 1.1 1.1 1.1.6.1 1.1-.4 1.1-1.1zm0-18.8c0-.6-.5-1.1-1.1-1.1-.6 0-1.1.5-1.1 1.1 0 .6.5 1.1 1.1 1.1.6 0 1.1-.5 1.1-1.1zm0-20.4c0-.6-.5-1.1-1.1-1.1-.6 0-1.1.5-1.1 1.1 0 .6.5 1.1 1.1 1.1.6 0 1.1-.5 1.1-1.1zm0-18.9c0-.6-.5-1.1-1.1-1.1-.6 0-1.1.5-1.1 1.1 0 .6.5 1.1 1.1 1.1.6.1 1.1-.4 1.1-1.1zm0-18.8c0-.6-.5-1.1-1.1-1.1-.6 0-1.1.5-1.1 1.1 0 .6.5 1.1 1.1 1.1.6 0 1.1-.5 1.1-1.1zM61.7 1.1c0-.6-.5-1.1-1.1-1.1-.6 0-1.1.5-1.1 1.1 0 .6.5 1.1 1.1 1.1.5.1 1.1-.4 1.1-1.1zm78.9 0c0-.6-.5-1.1-1.1-1.1-.6 0-1.1.5-1.1 1.1 0 .6.5 1.1 1.1 1.1.6.1 1.1-.4 1.1-1.1zm18.8 176.6c0-.6-.5-1.1-1.1-1.1-.6 0-1.1.5-1.1 1.1 0 .6.5 1.1 1.1 1.1.6.1 1.1-.4 1.1-1.1zm0-18.8c0-.6-.5-1.1-1.1-1.1-.6 0-1.1.5-1.1 1.1 0 .6.5 1.1 1.1 1.1.6 0 1.1-.5 1.1-1.1zm0-18.9c0-.6-.5-1.1-1.1-1.1-.6 0-1.1.5-1.1 1.1 0 .6.5 1.1 1.1 1.1.6 0 1.1-.5 1.1-1.1zm0-20.4c0-.6-.5-1.1-1.1-1.1-.6 0-1.1.5-1.1 1.1 0 .6.5 1.1 1.1 1.1.6.1 1.1-.5 1.1-1.1zm0-20.4c0-.6-.5-1.1-1.1-1.1-.6 0-1.1.5-1.1 1.1 0 .6.5 1.1 1.1 1.1.6.1 1.1-.4 1.1-1.1zm0-18.8c0-.6-.5-1.1-1.1-1.1-.6 0-1.1.5-1.1 1.1 0 .6.5 1.1 1.1 1.1.6 0 1.1-.5 1.1-1.1zm0-20.4c0-.6-.5-1.1-1.1-1.1-.6 0-1.1.5-1.1 1.1 0 .6.5 1.1 1.1 1.1.6 0 1.1-.5 1.1-1.1zm0-18.9c0-.6-.5-1.1-1.1-1.1-.6 0-1.1.5-1.1 1.1 0 .6.5 1.1 1.1 1.1.6.1 1.1-.4 1.1-1.1zm0-18.8c0-.6-.5-1.1-1.1-1.1-.6 0-1.1.5-1.1 1.1 0 .6.5 1.1 1.1 1.1.6 0 1.1-.5 1.1-1.1zm19.5 136.6c0-.6-.5-1.1-1.1-1.1-.6 0-1.1.5-1.1 1.1 0 .6.5 1.1 1.1 1.1.6 0 1.1-.5 1.1-1.1zm0-18.9c0-.6-.5-1.1-1.1-1.1-.6 0-1.1.5-1.1 1.1 0 .6.5 1.1 1.1 1.1.6 0 1.1-.5 1.1-1.1zm21.1 0c0-.6-.5-1.1-1.1-1.1-.6 0-1.1.5-1.1 1.1 0 .6.5 1.1 1.1 1.1.6 0 1.1-.5 1.1-1.1zm-21.1-20.4c0-.6-.5-1.1-1.1-1.1-.6 0-1.1.5-1.1 1.1 0 .6.5 1.1 1.1 1.1.6.1 1.1-.5 1.1-1.1zm0-20.4c0-.6-.5-1.1-1.1-1.1-.6 0-1.1.5-1.1 1.1 0 .6.5 1.1 1.1 1.1.6.1 1.1-.4 1.1-1.1zm0-18.8c0-.6-.5-1.1-1.1-1.1-.6 0-1.1.5-1.1 1.1 0 .6.5 1.1 1.1 1.1.6 0 1.1-.5 1.1-1.1zm0-20.4c0-.6-.5-1.1-1.1-1.1-.6 0-1.1.5-1.1 1.1 0 .6.5 1.1 1.1 1.1.6 0 1.1-.5 1.1-1.1zm0-18.9c0-.6-.5-1.1-1.1-1.1-.6 0-1.1.5-1.1 1.1 0 .6.5 1.1 1.1 1.1.6.1 1.1-.4 1.1-1.1zm21.1 78.5c0-.6-.5-1.1-1.1-1.1-.6 0-1.1.5-1.1 1.1 0 .6.5 1.1 1.1 1.1.6.1 1.1-.5 1.1-1.1zm0-20.4c0-.6-.5-1.1-1.1-1.1-.6 0-1.1.5-1.1 1.1 0 .6.5 1.1 1.1 1.1.6.1 1.1-.4 1.1-1.1zm0-18.8c0-.6-.5-1.1-1.1-1.1-.6 0-1.1.5-1.1 1.1 0 .6.5 1.1 1.1 1.1.6 0 1.1-.5 1.1-1.1zm0-20.4c0-.6-.5-1.1-1.1-1.1-.6 0-1.1.5-1.1 1.1 0 .6.5 1.1 1.1 1.1.6 0 1.1-.5 1.1-1.1z" opacity=".5"/>
        <g fill-rule="nonzero">
            <g stroke="#84A2CA" stroke-width=".265">
                <path fill="#DFEDF8" d="M82.1 91.9c0-1.6.8-3 2.2-3.8l13.5-7.8c1.4-.8 3-.8 4.4 0l13.5 7.8c1.4.8 2.2 2.2 2.2 3.8v15.6c0 1.6-.8 3-2.2 3.8l-13.5 7.8c-1.4.8-3 .8-4.4 0l-13.5-7.8c-1.4-.8-2.2-2.2-2.2-3.8V91.9z"/>
                <path fill="#A8D0EF" d="M115.7 88.1l-13.5-7.8c-.7-.4-1.4-.6-2.2-.6v40c.8 0 1.5-.2 2.2-.6l13.5-7.8c1.4-.8 2.2-2.2 2.2-3.8V91.9c0-1.6-.8-3.1-2.2-3.8z"/>
                <path fill="#FFF" d="M84.2 90.6c-1-.6-1-2 0-2.5l13.5-7.8c1.4-.8 3-.8 4.4 0l13.5 7.8c1 .6 1 2 0 2.5l-13.5 7.8c-1.4.8-3 .8-4.4 0l-13.5-7.8z"/>
                <path fill="#1A00F0" d="M100 80.9c-.6 0-1.1.1-1.6.4l-13.5 7.8c-.1.1-.1.2-.1.2 0 .1 0 .2.1.2l13.5 7.8c1 .6 2.2.6 3.2 0l13.5-7.8c.1-.1.1-.2.1-.2 0-.1 0-.2-.1-.2l-13.5-7.8c-.5-.3-1.1-.4-1.6-.4z"/>
            </g>
            <g stroke="#84A2CA" stroke-width=".265">
                <path fill="#DFEDF8" d="M135 121.8c0-1.6.8-3 2.2-3.8l13.5-7.8c1.4-.8 3-.8 4.4 0l13.5 7.8c1.4.8 2.2 2.2 2.2 3.8v15.6c0 1.6-.8 3-2.2 3.8l-13.5 7.8c-1.4.8-3 .8-4.4 0l-13.5-7.8c-1.4-.8-2.2-2.2-2.2-3.8v-15.6z"/>
                <path fill="#A8D0EF" d="M168.7 118l-13.5-7.8c-.7-.4-1.4-.6-2.2-.6v40c.8 0 1.5-.2 2.2-.6l13.5-7.8c1.4-.8 2.2-2.2 2.2-3.8v-15.6c0-1.6-.8-3.1-2.2-3.8z"/>
                <path fill="#FFF" d="M137.2 120.5c-1-.6-1-2 0-2.5l13.5-7.8c1.4-.8 3-.8 4.4 0l13.5 7.8c1 .6 1 2 0 2.5l-13.5 7.8c-1.4.8-3 .8-4.4 0l-13.5-7.8z"/>
                <path fill="#DFEDF8" d="M153 110.7c-.6 0-1.1.1-1.6.4l-13.5 7.8c-.1.1-.1.2-.1.2 0 .1 0 .2.1.2l13.5 7.8c1 .6 2.2.6 3.2 0l13.5-7.8c.1-.1.1-.2.1-.2 0-.1 0-.2-.1-.2l-13.5-7.8c-.5-.2-1.1-.4-1.6-.4z"/>
            </g>
            <g stroke="#84A2CA" stroke-width=".265">
                <path fill="#DFEDF8" d="M29.1 121.8c0-1.6.8-3 2.2-3.8l13.5-7.8c1.4-.8 3-.8 4.4 0l13.5 7.8c1.4.8 2.2 2.2 2.2 3.8v15.6c0 1.6-.8 3-2.2 3.8L49.2 149c-1.4.8-3 .8-4.4 0l-13.5-7.8c-1.4-.8-2.2-2.2-2.2-3.8v-15.6z"/>
                <path fill="#A8D0EF" d="M62.8 118l-13.5-7.8c-.7-.4-1.4-.6-2.2-.6v40c.8 0 1.5-.2 2.2-.6l13.5-7.8c1.4-.8 2.2-2.2 2.2-3.8v-15.6c0-1.6-.9-3.1-2.2-3.8z"/>
                <path fill="#FFF" d="M31.3 120.5c-1-.6-1-2 0-2.5l13.5-7.8c1.4-.8 3-.8 4.4 0l13.5 7.8c1 .6 1 2 0 2.5l-13.5 7.8c-1.4.8-3 .8-4.4 0l-13.5-7.8z"/>
                <path fill="#DFEDF8" d="M47 110.7c-.6 0-1.1.1-1.6.4L31.9 119c-.1.1-.1.2-.1.2 0 .1 0 .2.1.2l13.5 7.8c1 .6 2.2.6 3.2 0l13.5-7.8c.1-.1.1-.2.1-.2 0-.1 0-.2-.1-.2l-13.5-7.8c-.5-.3-1-.5-1.6-.5z"/>
            </g>
            <g stroke="#84A2CA" stroke-width=".265">
                <path fill="#DFEDF8" d="M135 60.3c0-1.6.8-3 2.2-3.8l13.5-7.8c1.4-.8 3-.8 4.4 0l13.5 7.8c1.4.8 2.2 2.2 2.2 3.8V76c0 1.6-.8 3-2.2 3.8l-13.5 7.8c-1.4.8-3 .8-4.4 0l-13.5-7.8c-1.4-.8-2.2-2.2-2.2-3.8V60.3z"/>
                <path fill="#A8D0EF" d="M168.7 56.5l-13.5-7.8c-.7-.4-1.4-.6-2.2-.6v40c.8 0 1.5-.2 2.2-.6l13.5-7.8c1.4-.8 2.2-2.2 2.2-3.8V60.3c0-1.5-.8-3-2.2-3.8z"/>
                <path fill="#FFF" d="M137.2 59.1c-1-.6-1-2 0-2.5l13.5-7.8c1.4-.8 3-.8 4.4 0l13.5 7.8c1 .6 1 2 0 2.5l-13.5 7.8c-1.4.8-3 .8-4.4 0l-13.5-7.8z"/>
                <path fill="#DFEDF8" d="M153 49.3c-.6 0-1.1.1-1.6.4l-13.5 7.8c-.1.1-.1.2-.1.2 0 .1 0 .2.1.2l13.5 7.8c1 .6 2.2.6 3.2 0l13.5-7.8c.1-.1.1-.2.1-.2 0-.1 0-.2-.1-.2l-13.5-7.8c-.5-.2-1.1-.4-1.6-.4z"/>
            </g>
            <g stroke="#84A2CA" stroke-width=".265">
                <path fill="#DFEDF8" d="M29.1 60.3c0-1.6.8-3 2.2-3.8l13.5-7.8c1.4-.8 3-.8 4.4 0l13.5 7.8c1.4.8 2.2 2.2 2.2 3.8V76c0 1.6-.8 3-2.2 3.8l-13.5 7.8c-1.4.8-3 .8-4.4 0l-13.5-7.8c-1.4-.8-2.2-2.2-2.2-3.8V60.3z"/>
                <path fill="#A8D0EF" d="M62.8 56.5l-13.5-7.8c-.7-.4-1.4-.6-2.2-.6v40c.8 0 1.5-.2 2.2-.6l13.5-7.8C64.1 79 65 77.5 65 76V60.3c0-1.5-.9-3-2.2-3.8z"/>
                <path fill="#FFF" d="M31.3 59.1c-1-.6-1-2 0-2.5l13.5-7.8c1.4-.8 3-.8 4.4 0l13.5 7.8c1 .6 1 2 0 2.5l-13.5 7.8c-1.4.8-3 .8-4.4 0l-13.5-7.8z"/>
                <path fill="#DFEDF8" d="M47 49.3c-.6 0-1.1.1-1.6.4l-13.5 7.8c-.1.1-.1.2-.1.2 0 .1 0 .2.1.2l13.5 7.8c1 .6 2.2.6 3.2 0L62.2 58c.1-.1.1-.2.1-.2 0-.1 0-.2-.1-.2l-13.5-7.8c-.6-.3-1.1-.5-1.7-.5z"/>
            </g>
            <g stroke="#84A2CA" stroke-width=".265">
                <path fill="#DFEDF8" d="M82.1 148.8c0-1.6.8-3 2.2-3.8l13.5-7.8c1.4-.8 3-.8 4.4 0l13.5 7.8c1.4.8 2.2 2.2 2.2 3.8v15.6c0 1.6-.8 3-2.2 3.8l-13.5 7.8c-1.4.8-3 .8-4.4 0l-13.5-7.8c-1.4-.8-2.2-2.2-2.2-3.8v-15.6z"/>
                <path fill="#A8D0EF" d="M115.7 145l-13.5-7.8c-.7-.4-1.4-.6-2.2-.6v40c.8 0 1.5-.2 2.2-.6l13.5-7.8c1.4-.8 2.2-2.2 2.2-3.8v-15.6c0-1.6-.8-3-2.2-3.8z"/>
                <path fill="#FFF" d="M84.2 147.5c-1-.6-1-2 0-2.5l13.5-7.8c1.4-.8 3-.8 4.4 0l13.5 7.8c1 .6 1 2 0 2.5l-13.5 7.8c-1.4.8-3 .8-4.4 0l-13.5-7.8z"/>
                <path fill="#DFEDF8" d="M100 137.8c-.6 0-1.1.1-1.6.4L84.8 146c-.1.1-.1.2-.1.2 0 .1 0 .2.1.2l13.5 7.8c1 .6 2.2.6 3.2 0l13.5-7.8c.1-.1.1-.2.1-.2 0-.1 0-.2-.1-.2l-13.5-7.8c-.4-.3-1-.4-1.5-.4z"/>
            </g>
            <g stroke="#84A2CA" stroke-width=".265">
                <path fill="#DFEDF8" d="M82.1 35c0-1.6.8-3 2.2-3.8l13.5-7.8c1.4-.8 3-.8 4.4 0l13.5 7.8c1.4.8 2.2 2.2 2.2 3.8v15.6c0 1.6-.8 3-2.2 3.8l-13.5 7.8c-1.4.8-3 .8-4.4 0l-13.5-7.8c-1.4-.8-2.2-2.2-2.2-3.8V35z"/>
                <path fill="#A8D0EF" d="M115.7 31.2l-13.5-7.8c-.7-.4-1.4-.6-2.2-.6v40c.8 0 1.5-.2 2.2-.6l13.5-7.8c1.4-.8 2.2-2.2 2.2-3.8V34.9c0-1.5-.8-3-2.2-3.7z"/>
                <path fill="#FFF" d="M84.2 33.7c-1-.6-1-2 0-2.5l13.5-7.8c1.4-.8 3-.8 4.4 0l13.5 7.8c1 .6 1 2 0 2.5l-13.5 7.8c-1.4.8-3 .8-4.4 0l-13.5-7.8z"/>
                <path fill="#DFEDF8" d="M100 23.9c-.6 0-1.1.1-1.6.4l-13.5 7.8c-.1.1-.1.2-.1.2 0 .1 0 .2.1.2l13.5 7.8c1 .6 2.2.6 3.2 0l13.5-7.8c.1-.1.1-.2.1-.2 0-.1 0-.2-.1-.2l-13.5-7.8c-.5-.2-1.1-.4-1.6-.4z"/>
            </g>
            <path fill="#75AADF" d="M116.6 88.8c.1.1.3.3.4.5l28.1-16.1c0-.3-.2-.7-.4-.8l-28.3 16.2.2.2zM136.4 118.6l-26-14.9c-.3.2-.5.5-.5.8l25.8 14.9c.3-.3.5-.6.7-.8zM64 119.1c.1.1.1.2.2.2L90 104.5c0-.3-.2-.7-.4-.8l-26 14.9c.2.2.3.3.4.5zM65 62l25-14.4c0-.3-.2-.7-.4-.8L65 60.9V62zM82.1 148.8v-.6l-23.9-13.7c-.3.2-.5.5-.5.8l24.3 14v-.5h.1zM100 62.8h-.4v26.3c.2 0 .6 0 .8-.1V62.8h-.4zM117.9 150.1l25.8-14.8c0-.3-.2-.7-.4-.8L117.9 149v1.1zM84.2 88.1L56.7 72.3c-.3.2-.5.5-.5.8l27.2 15.7c.2-.3.5-.5.8-.7zM135 60.9l-24.6-14.2c-.3.2-.5.5-.5.8L135 62v-1.1z"/>
            <g fill="#84A2CA">
                <path d="M54.8 54.2l-.2.1-8.4-4.8.4-.1zM44.3 55.8l-.3.2-4.6-2.7.2-.2zM36 56.9l-.3.1-1.4-.8.3-.1zM54.3 57.7l-.2.2-3.1-1.8.3-.1zM61.7 58.1l-.2.1-4.5-2.5c-.1-.1-.3-.1-.4-.1h-2.4c-.5 0-.9-.1-1.2-.3L47.3 52l.2-.1 5.7 3.3c.3.1.6.2 1 .2h2.4c.2 0 .5.1.7.2l4.4 2.5zM45.8 58.7l-.2.1-3.4-2 .2-.1zM60.1 59.1l-.3.2-4.2-2.5.2-.1z"/>
                <path d="M45.4 50.7c.2.1.3.2.3.4v1.4c0 .2.1.4.4.6l3.2 1.9c.2.1.3.2.3.4v1.4c0 .2.1.4.4.6l2.1 1.2c.3.1.6.2 1 .2h2.4c.2 0 .5.1.7.2l2.2 1.3-.2.1-2.2-1.3c-.1-.1-.3-.1-.4-.1h-2.4c-.5 0-.9-.1-1.2-.3l-2.1-1.2c-.3-.2-.5-.4-.5-.7v-1.4c0-.1-.1-.2-.2-.2L46 53.3c-.3-.2-.5-.4-.5-.7v-1.4c0-.1-.1-.2-.2-.2l-.8-.4.2-.1.7.2zM56.7 61.1l-.2.1-2-1.1.2-.2zM46.4 55.2c.2.1.3.2.3.4V57c0 .2.2.4.4.6L55 62l-.2.1-7.9-4.6c-.3-.2-.5-.4-.5-.7v-1.4c0-.1-.1-.2-.2-.2l-5.2-3 .2-.1 5.2 3.1zM48.2 62l-.2.2-1.2-.7c-.3-.1-.6-.2-1-.2h-2.4c-.2 0-.5-.1-.7-.2l-4.9-2.8c-.3-.1-.6-.2-1-.2h-2.4c-.2 0-.5-.1-.7-.2l-1.2-.7.2-.1 1.2.7c.1.1.3.1.4.1h2.4c.5 0 .9.1 1.2.3l4.9 2.8c.1.1.3.1.4.1h2.4c.5 0 .9.1 1.2.3l1.4.6z"/>
                <path d="M49.7 60.9c.3.2.5.4.5.7V63c0 .1.1.2.2.2l1.3.7-.2.1-1.3-.7c-.2-.1-.3-.2-.3-.4v-1.4c0-.2-.1-.4-.4-.6l-1.7-1c-.3-.1-.6-.2-1-.2h-2.4c-.2 0-.5-.1-.7-.2l-3.1-1.8c-.2-.1-.3-.2-.3-.4v-1.4c0-.2-.1-.4-.4-.6L37.6 54l.2-.1 2.3 1.3c.3.2.5.4.5.7v1.4c0 .1.1.2.2.2l3.1 1.8c.1.1.3.1.4.1h2.4c.5 0 .9.1 1.2.3l1.8 1.2zM50 64.9l-.2.1-3.4-2c-.2.1-.4 0-.5 0h-2.4c-.5 0-.9-.1-1.2-.3L35.9 59l.2-.1 6.4 3.7c.3.1.6.2 1 .2h2.4c.2 0 .5.1.7.2l3.4 1.9zM48.2 65.9l-.3.1-3.5-2 .2-.2zM38.6 56.5l-.2.1-2.4-1.4.2-.1zM53.3 63l-.2.2-1.5-.9.2-.1z"/>
            </g>
            <g fill="#84A2CA">
                <path d="M54.8 115.7l-.2.1-8.4-4.8.4-.1zM44.3 117.3l-.3.2-4.6-2.7.2-.1zM36 118.4l-.3.1-1.4-.8.3-.1zM54.3 119.3l-.2.1-3.1-1.8.3-.1zM61.7 119.7l-.2.1-4.5-2.6c-.1-.1-.3-.1-.4-.1h-2.4c-.5 0-.9-.1-1.2-.3l-5.7-3.3.2-.1 5.7 3.3c.3.1.6.2 1 .2h2.4c.2 0 .5.1.7.2l4.4 2.6zM45.8 120.2l-.2.1-3.4-1.9.2-.2zM60.1 120.6l-.3.2-4.2-2.5.2-.1z"/>
                <path d="M45.4 112.2c.2.1.3.2.3.4v1.4c0 .2.1.4.4.6l3.2 1.9c.2.1.3.2.3.4v1.4c0 .2.1.4.4.6l2.1 1.2c.3.1.6.2 1 .2h2.4c.2 0 .5.1.7.2l2.2 1.3-.2.1-2.2-1.3c-.1-.1-.3-.1-.4-.1h-2.4c-.5 0-.9-.1-1.2-.3l-2.1-1.2c-.3-.2-.5-.4-.5-.7v-1.4c0-.1-.1-.2-.2-.2l-3.2-1.9c-.3-.2-.5-.4-.5-.7v-1.4c0-.1-.1-.2-.2-.2l-.8-.4.2-.1.7.2zM56.7 122.6l-.2.1-2-1.1.2-.2zM46.4 116.7c.2.1.3.2.3.4v1.4c0 .2.2.4.4.6l7.9 4.6-.2.1-7.9-4.6c-.3-.2-.5-.4-.5-.7v-1.4c0-.1-.1-.2-.2-.2l-5.2-3 .2-.1 5.2 2.9zM48.2 123.5l-.2.1-1.2-.7c-.3-.1-.6-.2-1-.2h-2.4c-.2 0-.5-.1-.7-.2l-4.9-2.8c-.3-.1-.6-.2-1-.2h-2.4c-.2 0-.5-.1-.7-.2l-1.2-.7.2-.1 1.2.7c.1.1.3.1.4.1h2.4c.5 0 .9.1 1.2.3l4.9 2.8c.1.1.3.1.4.1h2.4c.5 0 .9.1 1.2.3l1.4.7z"/>
                <path d="M49.7 122.4c.3.2.5.4.5.7v1.4c0 .1.1.2.2.2l1.3.7-.2.1-1.3-.7c-.2-.1-.3-.2-.3-.4V123c0-.2-.1-.4-.4-.6l-1.7-1c-.3-.1-.6-.2-1-.2h-2.4c-.2 0-.5-.1-.7-.2l-3.1-1.8c-.2-.1-.3-.2-.3-.4v-1.4c0-.2-.1-.4-.4-.6l-2.3-1.3.2-.1 2.3 1.3c.3.2.5.4.5.7v1.4c0 .1.1.2.2.2l3.1 1.8c.1.1.3.1.4.1h2.4c.5 0 .9.1 1.2.3l1.8 1.2zM50 126.5l-.2.1-3.4-2c-.1-.1-.3-.1-.4-.1h-2.4c-.5 0-.9-.1-1.2-.3l-6.4-3.7.2-.1 6.4 3.7c.3.1.6.2 1 .2H46c.2 0 .5.1.7.2l3.3 2zM48.2 127.4l-.3.1-3.5-2 .2-.2zM38.6 118l-.2.1-2.4-1.3.2-.2zM53.3 124.5l-.2.2-1.5-.9.2-.1z"/>
            </g>
            <g fill="#84A2CA">
                <path d="M160.6 54.2l-.2.1-8.4-4.8.4-.1zM150 55.8l-.2.2-4.7-2.7.3-.2zM141.8 56.9l-.3.1-1.4-.8.2-.1zM160.1 57.7l-.2.2-3.1-1.8.3-.1zM167.5 58.1l-.2.1-4.5-2.6c-.1-.1-.3-.1-.4-.1H160c-.5 0-.9-.1-1.2-.3L153 52l.2-.1 5.7 3.3c.3.1.6.2 1 .2h2.4c.2 0 .5.1.7.2l4.5 2.5zM151.6 58.7l-.3.1-3.4-2 .3-.1zM165.9 59.1l-.3.2-4.3-2.5.3-.1z"/>
                <path d="M151.2 50.7c.2.1.3.2.3.4v1.4c0 .2.1.4.4.6l3.2 1.9c.2.1.3.2.3.4v1.4c0 .2.1.4.4.6l2.1 1.2c.3.1.6.2 1 .2h2.4c.2 0 .5.1.7.2l2.2 1.3-.2.1-2.2-1.3c-.1-.1-.3-.1-.4-.1H159c-.5 0-.9-.1-1.2-.3l-2.1-1.2c-.3-.2-.5-.4-.5-.7v-1.4c0-.1-.1-.2-.2-.2l-3.2-1.9c-.3-.2-.5-.4-.5-.7v-1.4c0-.1-.1-.2-.2-.2l-.8-.4.2-.1.7.2zM162.5 61.1l-.3.1-1.9-1.1.2-.2zM152.2 55.2c.2.1.3.2.3.4V57c0 .2.2.4.4.6l7.9 4.6-.2.1-7.9-4.6c-.3-.2-.5-.4-.5-.7v-1.4c0-.1-.1-.2-.2-.2l-5.2-3 .2-.1 5.2 2.9zM154 62l-.2.1-1.2-.7c-.3-.1-.6-.2-1-.2h-2.4c-.2 0-.5-.1-.7-.2l-4.9-2.8c-.3-.1-.6-.2-1-.2h-2.4c-.2 0-.5-.1-.7-.2l-1.2-.7.2-.1 1.2.7c.1.1.3.1.4.1h2.4c.5 0 .9.1 1.2.3l4.9 2.8c.1.1.3.1.4.1h2.4c.5 0 .9.1 1.2.3l1.4.7z"/>
                <path d="M155.5 60.9c.3.2.5.4.5.7V63c0 .1.1.2.2.2l1.3.7-.2.1-1.3-.7c-.2-.1-.3-.2-.3-.4v-1.4c0-.2-.1-.4-.4-.6l-1.7-1c-.3-.1-.6-.2-1-.2h-2.4c-.2 0-.5-.1-.7-.2l-3.1-1.8c-.2-.1-.3-.2-.3-.4v-1.4c0-.2-.1-.4-.4-.6l-2.3-1.3.2-.1 2.3 1.3c.3.2.5.4.5.7v1.4c0 .1.1.2.2.2l3.1 1.8c.1.1.3.1.4.1h2.4c.5 0 .9.1 1.2.3l1.8 1.2zM155.8 64.9l-.2.1-3.4-2c-.1-.1-.3-.1-.4-.1h-2.4c-.5 0-.9-.1-1.2-.3l-6.4-3.7.2-.1 6.4 3.7c.3.1.6.2 1 .2h2.4c.2 0 .5.1.7.2l3.3 2zM154 65.9l-.3.1-3.5-2 .2-.2zM144.4 56.5l-.2.1-2.4-1.4.2-.1zM159.1 63l-.3.2-1.4-.9.2-.1z"/>
            </g>
            <g fill="#84A2CA">
                <path d="M160.6 115.7l-.2.1-8.4-4.8.4-.1zM150 117.3l-.2.2-4.7-2.7.3-.1zM141.8 118.4l-.3.1-1.4-.8.2-.1zM160.1 119.3l-.2.1-3.1-1.8.3-.1zM167.5 119.7l-.2.1-4.5-2.6c-.1-.1-.3-.1-.4-.1H160c-.5 0-.9-.1-1.2-.3l-5.7-3.3.2-.1 5.7 3.3c.3.1.6.2 1 .2h2.4c.2 0 .5.1.7.2l4.4 2.6zM151.6 120.2l-.3.1-3.4-1.9.3-.2zM165.9 120.6l-.3.2-4.3-2.5.3-.1z"/>
                <path d="M151.2 112.2c.2.1.3.2.3.4v1.4c0 .2.1.4.4.6l3.2 1.9c.2.1.3.2.3.4v1.4c0 .2.1.4.4.6l2.1 1.2c.3.1.6.2 1 .2h2.4c.2 0 .5.1.7.2l2.2 1.3-.2.1-2.2-1.3c-.1-.1-.3-.1-.4-.1H159c-.5 0-.9-.1-1.2-.3l-2.1-1.2c-.3-.2-.5-.4-.5-.7v-1.4c0-.1-.1-.2-.2-.2l-3.2-1.9c-.3-.2-.5-.4-.5-.7v-1.4c0-.1-.1-.2-.2-.2l-.8-.4.2-.1.7.2zM162.5 122.6l-.3.1-1.9-1.1.2-.2zM152.2 116.7c.2.1.3.2.3.4v1.4c0 .2.2.4.4.6l7.9 4.6-.2.1-7.9-4.6c-.3-.2-.5-.4-.5-.7v-1.4c0-.1-.1-.2-.2-.2l-5.2-3 .2-.1 5.2 2.9zM154 123.5l-.2.1-1.2-.7c-.3-.1-.6-.2-1-.2h-2.4c-.2 0-.5-.1-.7-.2l-4.9-2.8c-.3-.1-.6-.2-1-.2h-2.4c-.2 0-.5-.1-.7-.2l-1.2-.7.2-.1 1.2.7c.1.1.3.1.4.1h2.4c.5 0 .9.1 1.2.3l4.9 2.8c.1.1.3.1.4.1h2.4c.5 0 .9.1 1.2.3l1.4.7z"/>
                <path d="M155.5 122.4c.3.2.5.4.5.7v1.4c0 .1.1.2.2.2l1.3.7-.2.1-1.3-.7c-.2-.1-.3-.2-.3-.4V123c0-.2-.1-.4-.4-.6l-1.7-1c-.3-.1-.6-.2-1-.2h-2.4c-.2 0-.5-.1-.7-.2l-3.1-1.8c-.2-.1-.3-.2-.3-.4v-1.4c0-.2-.1-.4-.4-.6l-2.3-1.3.2-.1 2.3 1.3c.3.2.5.4.5.7v1.4c0 .1.1.2.2.2l3.1 1.8c.1.1.3.1.4.1h2.4c.5 0 .9.1 1.2.3l1.8 1.2zM155.8 126.5l-.2.1-3.4-2c-.1-.1-.3-.1-.4-.1h-2.4c-.5 0-.9-.1-1.2-.3l-6.4-3.7.2-.1 6.4 3.7c.3.1.6.2 1 .2h2.4c.2 0 .5.1.7.2l3.3 2zM154 127.4l-.3.1-3.5-2 .2-.2zM144.4 118l-.2.1-2.4-1.3.2-.2zM159.1 124.5l-.3.2-1.4-.9.2-.1z"/>
            </g>
            <g fill="#84A2CA">
                <path d="M107.5 142.9l-.3.1-8.3-4.8.3-.1zM96.9 144.5l-.3.2L92 142l.2-.1zM88.6 145.6l-.2.1-1.4-.8.2-.1zM106.9 146.5l-.2.1-3-1.8.2-.1zM114.4 146.9l-.2.1-4.5-2.6c-.1-.1-.3-.1-.4-.1h-2.4c-.5 0-.9-.1-1.2-.3l-5.7-3.3.2-.1 5.7 3.3c.3.1.6.2 1 .2h2.4c.2 0 .5.1.7.2l4.4 2.6zM98.4 147.4l-.2.1-3.4-1.9.2-.2zM112.7 147.8l-.2.2-4.3-2.5.2-.1z"/>
                <path d="M98 139.4c.2.1.3.2.3.4v1.4c0 .2.1.4.4.6l3.2 1.9c.2.1.3.2.3.4v1.4c0 .2.1.4.4.6l2.1 1.2c.3.1.6.2 1 .2h2.4c.2 0 .5.1.7.2l2.2 1.3-.2.1-2.2-1.3c-.1-.1-.3-.1-.4-.1h-2.4c-.5 0-.9-.1-1.2-.3l-2.1-1.2c-.3-.2-.5-.4-.5-.7v-1.4c0-.1-.1-.2-.2-.2l-3.2-1.9c-.3-.2-.5-.4-.5-.7v-1.4c0-.1-.1-.2-.2-.2l-.8-.4.2-.1.7.2zM109.3 149.8l-.2.1-2-1.1.3-.2zM99.1 143.9c.2.1.3.2.3.4v1.4c0 .2.2.4.4.6l7.9 4.6-.2.1-7.9-4.6c-.3-.2-.5-.4-.5-.7v-1.4c0-.1-.1-.2-.2-.2l-5.2-3 .2-.1 5.2 2.9zM100.9 150.7l-.2.1-1.2-.7c-.3-.1-.6-.2-1-.2h-2.4c-.2 0-.5-.1-.7-.2l-4.9-2.8c-.3-.1-.6-.2-1-.2h-2.4c-.2 0-.5-.1-.7-.2l-1.2-.7.2-.1 1.2.7c.1.1.3.1.4.1h2.4c.5 0 .9.1 1.2.3l4.9 2.8c.1.1.3.1.4.1h2.4c.5 0 .9.1 1.2.3l1.4.7z"/>
                <path d="M102.3 149.6c.3.2.5.4.5.7v1.4c0 .1.1.2.2.2l1.3.7-.2.1-1.3-.7c-.2-.1-.3-.2-.3-.4v-1.4c0-.2-.1-.4-.4-.6l-1.7-1c-.3-.1-.6-.2-1-.2H97c-.2 0-.5-.1-.7-.2l-3.1-1.8c-.2-.1-.3-.2-.3-.4v-1.4c0-.2-.1-.4-.4-.6l-2.3-1.3.2-.1 2.3 1.3c.3.2.5.4.5.7v1.4c0 .1.1.2.2.2l3.1 1.8c.1.1.3.1.4.1h2.4c.5 0 .9.1 1.2.3l1.8 1.2zM102.6 153.7l-.2.1-3.4-2c-.1-.1-.3-.1-.4-.1h-2.4c-.5 0-.9-.1-1.2-.3l-6.4-3.7.2-.1 6.4 3.7c.3.1.6.2 1 .2h2.4c.2 0 .5.1.7.2l3.3 2zM100.9 154.6l-.3.1-3.6-2 .2-.2zM91.2 145.2l-.2.1-2.4-1.3.3-.2zM105.9 151.7l-.2.2-1.5-.9.3-.1z"/>
            </g>
            <g fill="#84A2CA">
                <path d="M107.5 29l-.3.1-8.3-4.8.3-.1zM96.9 30.6l-.3.2-4.6-2.7.2-.2zM88.6 31.7l-.2.1L87 31l.2-.1zM106.9 32.5l-.2.2-3-1.8.2-.1zM114.4 32.9l-.2.1-4.5-2.6c-.1-.1-.3-.1-.4-.1h-2.4c-.5 0-.9-.1-1.2-.3l-5.7-3.3.2-.1 5.7 3.3c.3.1.6.2 1 .2h2.4c.2 0 .5.1.7.2l4.4 2.6zM98.4 33.5l-.2.1-3.4-2 .2-.1zM112.7 33.9l-.2.2-4.3-2.5.2-.1z"/>
                <path d="M98 25.5c.2.1.3.2.3.4v1.4c0 .2.1.4.4.6l3.2 1.9c.2.1.3.2.3.4v1.4c0 .2.1.4.4.6l2.1 1.2c.3.1.6.2 1 .2h2.4c.2 0 .5.1.7.2l2.2 1.3-.2.1-2.2-1.3c-.1-.1-.3-.1-.4-.1h-2.4c-.5 0-.9-.1-1.2-.3l-2.1-1.2c-.3-.2-.5-.4-.5-.7v-1.4c0-.1-.1-.2-.2-.2l-3.2-1.9c-.3-.2-.5-.4-.5-.7V26c0-.1-.1-.2-.2-.2l-.9-.6.2-.1.8.4zM109.3 35.9l-.2.1-2-1.1.3-.2zM99.1 29.9c.2.1.3.2.3.4v1.4c0 .2.2.4.4.6l7.9 4.6-.2.1-7.9-4.6c-.4-.2-.6-.4-.6-.7v-1.4c0-.1-.1-.2-.2-.2l-5.2-3 .2-.1 5.3 2.9zM100.9 36.8l-.2.1-1.2-.7c-.3-.1-.6-.2-1-.2h-2.4c-.2 0-.5-.1-.7-.2L90.5 33c-.3-.1-.6-.2-1-.2h-2.4c-.2 0-.5-.1-.7-.2l-1.1-.6.2-.1 1.2.7c.1.1.3.1.4.1h2.4c.5 0 .9.1 1.2.3l4.9 2.8c.1.1.3.1.4.1h2.4c.5 0 .9.1 1.2.3l1.3.6z"/>
                <path d="M102.3 35.7c.3.2.5.4.5.7v1.4c0 .1.1.2.2.2l1.3.7-.2.1-1.3-.7c-.2-.1-.3-.2-.3-.4v-1.4c0-.2-.1-.4-.4-.6l-1.7-1c-.3-.1-.6-.2-1-.2H97c-.2 0-.5-.1-.7-.2l-3.1-1.8c-.2-.1-.3-.2-.3-.4v-1.4c0-.2-.1-.4-.4-.6l-2.3-1.3.2-.1 2.3 1.3c.3.2.5.4.5.7v1.4c0 .1.1.2.2.2l3.1 1.8c.1.1.3.1.4.1h2.4c.5 0 .9.1 1.2.3l1.8 1.2zM102.6 39.7l-.2.1-3.4-2c-.1-.1-.3-.1-.4-.1h-2.4c-.5 0-.9-.1-1.2-.3l-6.4-3.7.2-.1 6.4 3.7c.3.1.6.2 1 .2h2.4c.2 0 .5.1.7.2l3.3 2zM100.9 40.7l-.3.1-3.6-2 .2-.2zM91.2 31.3l-.2.1-2.4-1.4.3-.1zM105.9 37.8l-.2.2-1.5-.9.3-.1z"/>
            </g>
            <path fill="#75AADF" d="M100 119.7h-.5v27.1h.1c.2.1.7.1.9 0 .1 0 .1 0 .1-.1v-27.1c-.3.1-.4.1-.6.1zM153 88.2h-.5v30.3h.1c.2.1.7.1.9 0 .1 0 .1-.1.1-.1V88.2h-.6zM47 88.2h-.5v30.3h.1c.2.1.7.1.9 0 .1 0 .1-.1.1-.1V88.2H47z"/>
            <path fill="url(#b)" d="M68.9 29.393c0 5.037-3.556 7.11-8 4.592-4.444-2.518-8-8.74-8-13.778 0-5.037 3.556-7.11 8-4.592 4.444 2.518 8 8.74 8 13.778z" style="mix-blend-mode:multiply" transform="translate(29 22)"/>
            <path fill="url(#c)" d="M124.4 56.667c0 5.666-4 8-9 5.166-5-2.833-9-9.833-9-15.5 0-5.666 4-8 9-5.166 5 2.833 9 9.833 9 15.5z" style="mix-blend-mode:multiply" transform="translate(29 22)"/>
            <path fill="url(#d)" d="M123 117.925c0 5.402-3.778 7.626-8.5 4.925-4.722-2.7-8.5-9.373-8.5-14.775 0-5.402 3.778-7.626 8.5-4.925 4.722 2.7 8.5 9.373 8.5 14.775z" style="mix-blend-mode:multiply" transform="translate(29 22)"/>
            <path fill="url(#e)" d="M68.9 86.987c0 5.037-3.556 7.111-8 4.593-4.444-2.519-8-8.741-8-13.778 0-5.037 3.63-7.185 8-4.593 4.444 2.519 8 8.74 8 13.778z" style="mix-blend-mode:multiply" transform="translate(29 22)"/>
            <path fill="url(#f)" d="M81.8 73.4c-5.9 3.4-15.6 3.4-21.5 0s-6-9-.1-12.4c5.9-3.4 15.6-3.4 21.5 0 6 3.4 6 8.9.1 12.4z" style="mix-blend-mode:multiply" transform="translate(29 22)"/>
            <path fill="url(#g)" d="M134.9 102.7c-5.9 3.4-15.6 3.4-21.5 0-6-3.4-6-9-.1-12.4 5.9-3.4 15.6-3.4 21.5 0 6 3.4 6 9 .1 12.4z" style="mix-blend-mode:multiply" transform="translate(29 22)"/>
            <path fill="url(#h)" d="M35.7 46.907c0 5.037-3.556 11.26-8 13.778-4.444 2.519-8 .519-8-4.592 0-5.112 3.556-11.26 8-13.778 4.444-2.519 8-.519 8 4.592z" style="mix-blend-mode:multiply" transform="translate(29 22)"/>
            <path fill="url(#i)" d="M89 78.007c0 5.037-3.556 11.26-8 13.778-4.444 2.519-8 .519-8-4.592 0-5.112 3.556-11.26 8-13.778 4.37-2.519 8-.519 8 4.592z" style="mix-blend-mode:multiply" transform="translate(29 22)"/>
            <path fill="url(#j)" d="M36.2 108.981c0 4.408-3.111 9.852-7 12.056-3.889 2.204-7 .454-7-4.018 0-4.408 3.111-9.852 7-12.056 3.889-2.204 7-.454 7 4.018z" style="mix-blend-mode:multiply" transform="translate(29 22)"/>
            <path fill="url(#k)" d="M89 21.03c0 4.896-3.333 10.945-7.5 13.393-4.167 2.448-7.5.504-7.5-4.465 0-4.968 3.333-10.945 7.5-13.393 4.097-2.52 7.5-.504 7.5 4.464z" style="mix-blend-mode:multiply" transform="translate(29 22)"/>
            <path fill="url(#l)" d="M81.8 131.1c-5.9 3.4-15.6 3.4-21.5 0-6-3.4-6-9-.1-12.4 5.9-3.4 15.6-3.4 21.5 0 6 3.4 6 9 .1 12.4z" style="mix-blend-mode:multiply" transform="translate(29 22)"/>
            <path fill="url(#m)" d="M25.406 100.751c-4.046 2.332-10.697 2.332-14.743 0-4.114-2.331-4.114-6.171-.069-8.502 4.046-2.332 10.698-2.332 14.743 0 4.046 2.331 4.183 6.171.069 8.502z" style="mix-blend-mode:multiply" transform="translate(29 22)"/>
        </g>
    </g>
</svg>
