<?xml version="1.0" encoding="UTF-8"?>
<svg height="24" viewBox="0 0 21 24" width="21" xmlns="http://www.w3.org/2000/svg"><g fill="#74b943" fill-rule="evenodd" transform="translate(-.56)"><path d="m11.0398531 23.811609c-.3052164 0-.6090858-.0801203-.876049-.2354887l-2.78897145-1.6581654c-.41647347-.2341354-.21308571-.3169624-.07569796-.3651429.55547755-.1938045.66808164-.2384661 1.26100409-.5762706.06168979-.0349173.14358367-.0216542.20742857.0159699l2.14244085 1.2781353c.077853.0433083.1874938.0433083.2588816 0l8.3534449-4.8445714c.0775837-.0446617.1276898-.1345263.1276898-.2270978v-9.68643605c0-.09473684-.0501061-.18324812-.1298449-.23142857l-8.3499429-4.8402406c-.0770449-.04520301-.1796816-.04520301-.2572653 0l-8.34805711 4.84186466c-.08108572.04655639-.13226939.13777444-.13226939.22980451v9.68643605c0 .0925715.05118367.1805414.13173061.224391l2.28817959 1.3284812c1.24160817.6236391 2.00182041-.1109774 2.00182041-.8491128v-9.56354883c0-.13506767.10829388-.24171429.24271837-.24171429h1.05923265c.13253878 0 .24217959.10664662.24217959.24171429v9.56354883c0 1.665203-.90244898 2.6198797-2.47351836 2.6198797-.48274286 0-.86284898 0-1.92423674-.5253834l-2.19039184-1.2670376c-.54093061-.3145263-.87604898-.9018947-.87604898-1.5312181v-9.68643605c0-.6293233.33511837-1.2169624.87604898-1.52986466l8.35344492-4.84998496c.5285388-.30045113 1.231102-.30045113 1.7556 0l8.3529061 4.84998496c.5409306.31452632.8773959.90054136.8773959 1.52986466v9.68643605c0 .6293234-.3364653 1.214797-.8773959 1.5312181l-8.3529061 4.8459248c-.2669633.1553684-.5702939.2354887-.879551.2354887"/><path d="m13.620049 17.1383459c-3.65532247 0-4.42119186-1.6860451-4.42119186-3.1000602 0-.1345263.10748572-.2419849.24137143-.2419849h1.08024493c.1204163 0 .2211673.0871578.2397551.2057142.163249 1.1046316.6492245 1.6622256 2.8598204 1.6622256 1.7599102 0 2.5090775-.4000601 2.5090775-1.3382256 0-.540812-.2122775-.9422255-2.9473714-1.2112782-2.2854857-.2270977-3.69923265-.7346165-3.69923265-2.5716992 0-1.69362407 1.42075105-2.7035188 3.80267755-2.7035188 2.676098 0 4.0001388.93302255 4.1679673 2.9354887.006196.0690226-.0180489.1353384-.0638449.1867669-.0457959.0481805-.1093714.0774136-.1767183.0774136h-1.0842857c-.1123347 0-.2114694-.0801203-.2343674-.1894737-.2602286-1.16255641-.892751-1.5341955-2.608751-1.5341955-1.9212735 0-2.1448653.67263158-2.1448653 1.1766316 0 .6103759.2637306.7882105 2.8579347 1.1330526 2.5669959.3410526 3.7865143.8239399 3.7865143 2.6366617 0 1.8289624-1.5177306 2.8764812-4.1647347 2.8764812"/></g></svg>