<?xml version="1.0" encoding="UTF-8"?>
<svg height="48" viewBox="0 0 48 48" width="48" xmlns="http://www.w3.org/2000/svg"><g style="fill:none;fill-rule:evenodd;stroke-linecap:round;stroke-linejoin:round;stroke:#898989;stroke-width:1.5"><path d="m10 47c-3.4797 0-6-2.5203-6-6v-28c0-.9786.5611-2.1264 1-3 .2926-.5824 1.62593333-3.24906667 4-8 .2667-.5334.4036-1 1-1s.7333.4666 1 1l4 8c.4389.8736 1 2.0214 1 3v28c0 3.4797-2.5203 6-6 6zm-6-34h12m-12 26h12m8-35c0-1.658 1.2612-3 3-3h13c1.7388 0 3 1.342 3 3v40c0 1.658-1.6612 3-3.4 3h-12.6c-1.7388 0-3-1.342-3-3z"/><path d="m.35 2h6.3m-6.3 9h6.3m-6.3 9h6.3m-6.3 9h6.3" transform="translate(23.65 9)"/></g></svg>