<?xml version="1.0" encoding="UTF-8"?>
<svg height="24" viewBox="0 0 25 24" width="25" xmlns="http://www.w3.org/2000/svg"><g fill="none" fill-rule="evenodd" transform="translate(.94)"><ellipse cx="12" cy="12.030537" fill="#1a171b" rx="12" ry="11.953307"/><path d="m17.2224375 4.49407004c-1.2174375.0423035-2.28.71066148-3.0709688 1.6351751-.8758125 1.01369649-1.4584687 2.21603112-1.8782812 3.44329961-.7509375-.61307393-1.3303125-1.40675487-2.53509375-1.75284047-.93121875-.26633463-1.9093125-.15632685-2.80875.51119066-.42609375.3170428-.719625.79629572-.85921875 1.24678599-.36140625 1.17077047.37996875 2.21266927.71671875 2.58677047l.73621875.7859299c.15178125.1540856.5173125.556109.338625 1.1324825-.193125.6266148-.9515625 1.0323736-1.7295.7933074-.3474375-.1055253-.8465625-.3633619-.7348125-.7264436.04621875-.1484825.15290625-.2596109.21009375-.3880155.0525-.110288.07753125-.1930273.09346875-.2415876.142125-.4622568-.05203125-1.0636576-.54909375-1.2163424-.4636875-.141572-.93815625-.0294163-1.12209375.5653541-.20859375.675642.11596875 1.9018833 1.85465625 2.4358599 2.03709375.6234397 3.7603125-.4814008 4.00471875-1.922428.1539375-.9025681-.2551875-1.5730739-1.00471875-2.4354864l-.6106875-.6727471c-.3699375-.36812448-.49696875-.99557974-.11409375-1.47782098.3230625-.40678599.7831875-.58038911 1.53675-.37624903 1.0999687.29752529 1.5902812 1.05777432 2.4084375 1.67094161-.3377813 1.1037199-.5585625 2.2115487-.7584375 3.2049806l-.1217813.7406381c-.5848125 3.0556576-1.03125 4.7335097-2.1914062 5.6967782-.23371875.165572-.56784375.4134164-1.07146875.4306926-.264.0081245-.3493125-.1727626-.35296875-.2515797-.00628125-.1846226.14990625-.2692296.2536875-.3523425.1550625-.0842334.38953125-.2239377.37359375-.671533-.016875-.5289339-.45675-.9875487-1.0925625-.966537-.47625.0161556-1.20215625.4626304-1.174875 1.2798444.02840625.8441089.81825 1.4767003 2.0090625 1.4366381.6365625-.0217588 2.05799995-.2798755 3.45890625-1.9386771 1.6305-1.9015097 2.0865-4.0814007 2.4295312-5.6768871l.382875-2.1063969c.2127188.0254008.4401563.0423035.6875625.0481868 2.0307188.042677 3.0465-1.00510509 3.0615938-1.76722182.0100312-.46122957-.3038438-.91508171-.74325-.90480934-.3145313.0088716-.7096875.21740078-.8045625.65070818-.092625.42508949.6462187.80871595.0687187 1.18132298-.41025.2644669-1.1457187.4508638-2.1814687.299393l.1883437-1.03685606c.384375-1.96622568.8584688-4.38480934 2.6569688-4.44364203.1310625-.00663035.6106875.00588327.6218437.32180545.0032813.10552529-.0229687.13242024-.147.37400778-.1262812.18835798-.1739062.34870039-.168.53294942.0173438.50203891.4005938.83196887.9548438.81207782.742125-.02390661.9555937-.74362646.9434062-1.11324513-.03-.86848249-.9489375-1.41712063-2.165625-1.37743191z" fill="#fff"/></g></svg>