<?xml version="1.0" encoding="UTF-8"?>
<svg height="24" viewBox="0 0 36 24" width="36" xmlns="http://www.w3.org/2000/svg"><path d="m34.5058824 11.3491525c-.2470589-.2440678-3.4176471-4.18983047-3.9529412-4.84067792-.5764706-.65084746-.8235294-.52881356-1.1941177-.4881356-.3705882.04067797-4.3647059.73220339-4.817647.77288136-.4529412.08135593-.7411765.2440678-.4529412.65084746.2470588.36610169 2.8823529 4.0271186 3.4588235 4.8813559l-10.5 2.481356-8.31764704-13.78983055c-.32941176-.48813559-.4117647-.65084745-1.15294117-.61016949-.74117647.04067797-6.54705883.52881356-6.95882353.52881356-.41176471.04067797-.86470588.20338983-.45294118 1.17966102.41176471.97627118 7 14.96949156 7.16470588 15.37627116.16470589.4067797.65882353 1.0576271 1.77058824.8135593 1.1529412-.2847457 5.1058824-1.3016949 7.2882353-1.8711864 1.1529412 2.0338983 3.4588235 6.1830509 3.9117647 6.7932203.5764706.8135594.9882353.6508475 1.8529412.4067797.7-.2033898 10.7882353-3.7830508 11.2411764-3.9864407.4529412-.2033898.7411765-.3254237.4117648-.7728813-.2470589-.3254238-2.882353-3.8644068-4.282353-5.6949153.9470588-.2440678 4.3647059-1.138983 4.7352941-1.2610169.4117647-.1220339.4941177-.3254238.2470589-.5694916zm-19.0647059 3.8644068c-.1235294.040678-6.01176474 1.4237288-6.30000003 1.5050848-.32941176.0813559-.32941176.0406779-.32941176-.081356-.08235295-.1220339-7-14.27796607-7.12352942-14.44067793-.08235294-.16271186-.08235294-.32542373 0-.32542373.08235295 0 5.55882353-.48813559 5.72352942-.48813559.20588235 0 .16470588.04067796.24705882.16271186 0 0 7.69999997 13.13898309 7.82352937 13.34237289.1647059.2033898.082353.2847458-.0411764.3254237zm16.5529411 3.0508475c.082353.1627118.2058824.2440678-.1235294.3254237-.2882353.1220339-9.9235294 3.3355932-10.1294117 3.4169492-.2058824.0813559-.3294118.1220339-.5764706-.2440678s-3.3764706-5.6949153-3.3764706-5.6949153l10.2529412-2.6440678c.2470588-.0813559.3294117-.1220339.4941176.1220339.1647059.2847458 3.3764706 4.5966102 3.4588235 4.7186441zm.6588236-7.1593221c-.2470588.040678-3.9941177.9762712-3.9941177.9762712l-3.0882353-4.14915251c-.0823529-.1220339-.1647058-.2440678.0411765-.28474576.2058824-.04067797 3.7058824-.65084746 3.8705882-.69152543.1647059-.04067796.2882353-.08135593.4941177.20338983.2058823.2440678 2.8411765 3.57966107 2.9647059 3.70169487.1235294.1220339-.0411765.2033899-.2882353.2440678z" fill="#fb503b" transform="translate(.5)"/></svg>