<?xml version="1.0" encoding="utf-8"?><svg fill="none" height="48" viewBox="0 0 48 48" width="48" xmlns="http://www.w3.org/2000/svg"><g stroke="#898989" stroke-linecap="round" stroke-linejoin="round" stroke-width="1.5"><path clip-rule="evenodd" d="m45.262 29.74-15.262 15.26-7.5 1.5 1.5-7.5 15.262-15.26c.7928-.7942 1.8688-1.2405 2.991-1.2405s2.1982.4463 2.991 1.2405l.018.016c1.6521 1.6526 1.6521 4.3315 0 5.984z" fill-rule="evenodd"/><path d="m16.5 40.5h-12c-1.65685 0-3-1.3431-3-3v-33c0-1.65685 1.34315-3 3-3h16.758c.7951.00017 1.5576.31596 2.12.878l7.244 7.244c.562.5624.8778 1.3249.878 2.12v10.744"/><path d="m7.5 10.5h6"/><path d="m7.5 19.5h6"/><path d="m7.5 28.5h6"/><path d="m19.5 10.5v18"/><path d="m25.5 19.5h-6"/></g></svg>